<svg width="65" height="67" viewBox="0 0 65 67" fill="none" xmlns="http://www.w3.org/2000/svg">
<g filter="url(#filter0_d_309_5960)">
<path d="M17.5 18.9999C13.5 18.9999 8.16667 21.9999 6 23.4999C8 13.0999 10.8333 8.16657 12 6.99991C22.3333 6.83325 44.1 6.59991 48.5 6.99991C54 7.49991 55.5 9.49991 56 10.4999C56.4 11.2999 57.5 17.8332 58 20.9999C57.6667 21.4999 56.8 22.1999 56 20.9999C55 19.4999 22.5 18.9999 17.5 18.9999Z" fill="#EBDBFD"/>
<path d="M58.75 27.5625L57.5046 17.5997C57.0162 13.692 56.772 11.7382 55.8524 10.2658C55.0422 8.96862 53.8718 7.9354 52.4841 7.29236C50.909 6.5625 48.94 6.5625 45.0019 6.5625H19.9981C16.06 6.5625 14.091 6.5625 12.5159 7.29236C11.1282 7.9354 9.95782 8.96862 9.14762 10.2658C8.22804 11.7382 7.98381 13.692 7.49535 17.5997L6.25 27.5625M15.4375 38.0625H49.5625M15.4375 38.0625C10.3634 38.0625 6.25 33.9491 6.25 28.875C6.25 23.8009 10.3634 19.6875 15.4375 19.6875H49.5625C54.6366 19.6875 58.75 23.8009 58.75 28.875C58.75 33.9491 54.6366 38.0625 49.5625 38.0625M15.4375 38.0625C10.3634 38.0625 6.25 42.1759 6.25 47.25C6.25 52.3241 10.3634 56.4375 15.4375 56.4375H49.5625C54.6366 56.4375 58.75 52.3241 58.75 47.25C58.75 42.1759 54.6366 38.0625 49.5625 38.0625M16.75 28.875H16.7763M16.75 47.25H16.7763M32.5 28.875H48.25M32.5 47.25H48.25" stroke="#9C4DF4" stroke-width="3.5" stroke-linecap="round" stroke-linejoin="round"/>
</g>
<defs>
<filter id="filter0_d_309_5960" x="-3" y="0" width="71" height="71" filterUnits="userSpaceOnUse" color-interpolation-filters="sRGB">
<feFlood flood-opacity="0" result="BackgroundImageFix"/>
<feColorMatrix in="SourceAlpha" type="matrix" values="0 0 0 0 0 0 0 0 0 0 0 0 0 0 0 0 0 0 127 0" result="hardAlpha"/>
<feOffset dy="4"/>
<feGaussianBlur stdDeviation="2"/>
<feComposite in2="hardAlpha" operator="out"/>
<feColorMatrix type="matrix" values="0 0 0 0 0 0 0 0 0 0 0 0 0 0 0 0 0 0 0.25 0"/>
<feBlend mode="normal" in2="BackgroundImageFix" result="effect1_dropShadow_309_5960"/>
<feBlend mode="normal" in="SourceGraphic" in2="effect1_dropShadow_309_5960" result="shape"/>
</filter>
</defs>
</svg>
