<svg width="60" height="61" viewBox="0 0 60 61" fill="none" xmlns="http://www.w3.org/2000/svg">
<g clip-path="url(#clip0_309_5948)">
<path d="M21 29.5C13.4 36.3 15.5 42.6666 17.5 45C26.3 47.8 31.1667 40.8333 32.5 37L42.5 28.5C47.8333 21.6667 57.7 7.59998 54.5 5.99998C51.3 4.39998 42.1667 10.6666 38 14C35.5 16.3333 28.6 22.7 21 29.5Z" fill="#EBDBFD"/>
<path d="M27.425 5.5H22.425C9.925 5.5 4.925 10.5 4.925 23V38C4.925 50.5 9.925 55.5 22.425 55.5H37.425C49.925 55.5 54.925 50.5 54.925 38V33" stroke="#9C4DF4" stroke-width="3.5" stroke-linecap="round" stroke-linejoin="round"/>
<path d="M54.7 9.39994C51.625 17.0749 43.9 27.5249 37.45 32.6999L33.5 35.8499C33 36.2249 32.5 36.5249 31.925 36.7499C31.925 36.3749 31.9 35.9999 31.85 35.5999C31.625 33.9249 30.875 32.3499 29.525 31.0249C28.15 29.6499 26.5 28.8749 24.8 28.6499C24.4 28.6249 24 28.5999 23.6 28.6249C23.825 27.9999 24.15 27.4249 24.575 26.9499L27.725 22.9999C32.9 16.5499 43.375 8.77494 51.025 5.69994C52.2 5.24994 53.35 5.59994 54.075 6.32494C54.825 7.07494 55.175 8.22494 54.7 9.39994Z" stroke="#9C4DF4" stroke-width="3.5" stroke-linecap="round" stroke-linejoin="round"/>
<path d="M31.95 36.725C31.95 38.925 31.1 41.025 29.525 42.625C28.3 43.85 26.65 44.7 24.675 44.95L19.75 45.475C17.075 45.775 14.775 43.5 15.075 40.775L15.6 35.85C16.075 31.475 19.725 28.675 23.625 28.6C24.025 28.575 24.425 28.6 24.825 28.625C26.525 28.85 28.175 29.625 29.55 31C30.9 32.35 31.65 33.9 31.875 35.575C31.925 35.975 31.95 36.375 31.95 36.725Z" stroke="#9C4DF4" stroke-width="3.5" stroke-linecap="round" stroke-linejoin="round"/>
<path d="M39.55 30.45C39.55 25.225 35.325 20.975 30.075 20.975" stroke="#9C4DF4" stroke-width="3.5" stroke-linecap="round" stroke-linejoin="round"/>
</g>
<defs>
<clipPath id="clip0_309_5948">
<rect width="60" height="60" fill="white" transform="translate(0 0.5)"/>
</clipPath>
</defs>
</svg>
