<svg width="62" height="63" viewBox="0 0 62 63" fill="none" xmlns="http://www.w3.org/2000/svg">
<g clip-path="url(#clip0_309_5965)">
<path d="M40.2027 19L39.6622 13.5H46.1486L52.0946 11.5L53.1757 17L57.5 21.5L52.0946 24.5L48.3108 29.5L43.4459 26L37.5 24L40.2027 19Z" fill="#EBDBFD"/>
<path d="M44.5463 42.0406L24.7389 22.2332L23.3057 20.8C22.7366 20.2309 21.813 20.2309 21.2439 20.8C20.6748 21.3691 20.6748 22.2927 21.2439 22.8618L22.1524 23.7702C20.6305 33.0424 16.4999 39.6453 14.7309 42.1316C14.2609 42.0266 13.7489 42.156 13.3828 42.5222L10.8055 45.0995C7.80848 48.0977 7.80848 52.9746 10.8055 55.9728C12.3041 57.4713 14.2737 58.2212 16.2422 58.2212C18.2107 58.2212 20.1792 57.4713 21.6789 55.9728L21.8048 55.8469L27.9914 62.0334C28.2759 62.3179 28.6491 62.4602 29.0223 62.4602C29.3954 62.4602 29.7686 62.3179 30.0532 62.0334C30.6222 61.4643 30.6222 60.5407 30.0532 59.9716L23.8666 53.7851L24.2561 53.3956C24.6223 53.0294 24.7517 52.5175 24.6468 52.0475C27.1331 50.2784 33.7359 46.1478 43.0081 44.626L43.9166 45.5344C44.2011 45.819 44.5743 45.9613 44.9475 45.9613C45.3206 45.9613 45.6938 45.819 45.9784 45.5344C46.5475 44.9653 46.5475 44.0417 45.9784 43.4726L44.5451 42.0394L44.5463 42.0406ZM12.8685 53.911C11.0073 52.0498 11.0073 49.0224 12.8685 47.1612L14.4148 45.6149L17.7897 48.9898L21.1646 52.3647L19.6183 53.911C17.7571 55.7722 14.7297 55.7722 12.8685 53.911ZM22.7413 49.8178L16.9606 44.0371C18.7122 41.6406 22.7623 35.3561 24.6538 26.2705L40.5079 42.1246C31.4234 44.0161 25.1378 48.0662 22.7413 49.8178Z" fill="#9C4DF4"/>
<path d="M50.9392 29.7667L52.3678 26.393C52.4202 26.2693 52.517 26.1725 52.6406 26.1201L56.0144 24.6915C57.1117 24.2274 57.8779 23.2466 58.0645 22.07C58.2511 20.8933 57.8243 19.7236 56.9251 18.9435L54.1578 16.5423C54.0564 16.4549 53.9946 16.3324 53.9829 16.1983L53.6669 12.5482C53.5642 11.361 52.8692 10.329 51.8068 9.78787C50.7444 9.24677 49.5013 9.29108 48.4809 9.90566L45.3428 11.796C45.2273 11.8648 45.092 11.887 44.9614 11.8567L41.3918 11.0287C40.2314 10.7593 39.0349 11.1021 38.1918 11.9441C37.3487 12.7873 37.007 13.9826 37.2764 15.1441L38.1043 18.7137C38.1347 18.8443 38.1137 18.9796 38.0437 19.0951L36.1533 22.2332C35.5388 23.2536 35.4944 24.4979 36.0356 25.5591C36.5767 26.6204 37.6087 27.3166 38.7959 27.4192L42.446 27.7352C42.5801 27.7469 42.7014 27.8087 42.79 27.9101L45.1911 30.6775C45.8512 31.4378 46.7876 31.86 47.773 31.86C47.9538 31.86 48.1357 31.846 48.3176 31.8168C49.4943 31.6302 50.4751 30.864 50.9392 29.7667ZM48.2547 28.6297C48.1579 28.8582 47.9666 28.92 47.8617 28.9364C47.7567 28.9527 47.5561 28.9527 47.3929 28.7661L44.9917 25.9988C44.404 25.3224 43.59 24.9061 42.6967 24.8291L39.0466 24.5131C38.7994 24.4921 38.6816 24.3288 38.6326 24.2344C38.5836 24.1399 38.5218 23.9487 38.6501 23.7364L40.5405 20.5983C41.0023 19.8309 41.1457 18.9271 40.944 18.0548L40.116 14.4852C40.06 14.2438 40.1778 14.0805 40.2536 14.0059C40.3154 13.9441 40.4355 13.8543 40.6093 13.8543C40.6478 13.8543 40.6886 13.859 40.7329 13.8695L44.3025 14.6974C45.1748 14.8992 46.0786 14.7569 46.8471 14.2939L49.9853 12.4036C50.1975 12.2753 50.3888 12.3371 50.4832 12.3861C50.5777 12.4351 50.7409 12.5529 50.7619 12.8001L51.078 16.4502C51.1549 17.3435 51.5701 18.1575 52.2476 18.7452L55.015 21.1464C55.2027 21.3085 55.2027 21.5102 55.1852 21.6152C55.1677 21.7201 55.1071 21.9114 54.8785 22.0082L51.5048 23.4367C50.6791 23.7866 50.0331 24.4326 49.6832 25.2583L48.2547 28.632V28.6297Z" fill="#9C4DF4"/>
<path d="M26.052 18.1819C26.2339 18.2566 26.4217 18.2916 26.6059 18.2916C27.1797 18.2916 27.7231 17.951 27.954 17.3889L31.6251 8.47357C31.9318 7.72956 31.5761 6.87709 30.8321 6.57039C30.0881 6.26368 29.2356 6.61936 28.9289 7.36338L25.2578 16.2787C24.9511 17.0228 25.3068 17.8752 26.0508 18.1819H26.052Z" fill="#9C4DF4"/>
<path d="M60.2079 35.9463C59.9012 35.2022 59.0499 34.8466 58.3047 35.1533L49.3894 38.8244C48.6454 39.1311 48.2897 39.9824 48.5964 40.7276C48.8285 41.2908 49.3719 41.6302 49.9445 41.6302C50.1287 41.6302 50.3177 41.5952 50.4984 41.5206L59.4138 37.8495C60.1578 37.5428 60.5135 36.6914 60.2068 35.9463H60.2079Z" fill="#9C4DF4"/>
</g>
<defs>
<clipPath id="clip0_309_5965">
<rect width="62" height="62" fill="white" transform="translate(0 0.5)"/>
</clipPath>
</defs>
</svg>
