<svg width="73" height="73" viewBox="0 0 73 73" fill="none" xmlns="http://www.w3.org/2000/svg">
<circle cx="36.5" cy="38.5" r="12.5" fill="#EBDBFD"/>
<path d="M20.7655 18.7823C20.2179 19.6489 19.4874 20.3852 18.6251 20.9396C17.7629 21.4939 16.7898 21.8529 15.7741 21.9913C14.6182 22.1555 13.4715 22.3319 12.3248 22.5236C9.12196 23.0558 6.84375 25.8755 6.84375 29.1209V54.75C6.84375 56.5651 7.56479 58.3058 8.84824 59.5893C10.1317 60.8727 11.8724 61.5938 13.6875 61.5938H59.3125C61.1276 61.5938 62.8683 60.8727 64.1518 59.5893C65.4352 58.3058 66.1563 56.5651 66.1563 54.75V29.1209C66.1563 25.8755 63.875 23.0558 60.6752 22.5236C59.5276 22.3324 58.3778 22.1549 57.2259 21.9913C56.2108 21.8524 55.2382 21.4933 54.3765 20.939C53.5148 20.3846 52.7848 19.6485 52.2376 18.7823L49.7373 14.7795C49.1758 13.8673 48.4027 13.1038 47.4836 12.5537C46.5644 12.0036 45.5263 11.683 44.457 11.6192C39.1562 11.3345 33.8438 11.3345 28.543 11.6192C27.4737 11.683 26.4356 12.0036 25.5164 12.5537C24.5973 13.1038 23.8242 13.8673 23.2627 14.7795L20.7655 18.7823V18.7823Z" stroke="#9C4DF4" stroke-width="3.5" stroke-linecap="round" stroke-linejoin="round"/>
<path d="M50.1875 38.7813C50.1875 42.4114 48.7454 45.8929 46.1785 48.4598C43.6116 51.0267 40.1301 52.4688 36.5 52.4688C32.8698 52.4688 29.3884 51.0267 26.8215 48.4598C24.2546 45.8929 22.8125 42.4114 22.8125 38.7813C22.8125 35.1511 24.2546 31.6696 26.8215 29.1027C29.3884 26.5358 32.8698 25.0938 36.5 25.0938C40.1301 25.0938 43.6116 26.5358 46.1785 29.1027C48.7454 31.6696 50.1875 35.1511 50.1875 38.7813V38.7813ZM57.0312 31.9375H57.0556V31.9618H57.0312V31.9375Z" stroke="#9C4DF4" stroke-width="3.5" stroke-linecap="round" stroke-linejoin="round"/>
</svg>
