<svg width="66" height="67" viewBox="0 0 66 67" fill="none" xmlns="http://www.w3.org/2000/svg">
<rect x="5.89285" y="8.75" width="54.2143" height="17.6786" rx="6" fill="#EBDBFD"/>
<path d="M60.5 25.25H5.49998M38.5 48.625L45.375 41.75L38.5 34.875M27.5 34.875L20.625 41.75L27.5 48.625M5.49999 21.95L5.49998 45.05C5.49998 49.6704 5.49998 51.9806 6.39918 53.7454C7.19014 55.2978 8.45223 56.5598 10.0046 57.3508C11.7693 58.25 14.0795 58.25 18.7 58.25H47.3C51.9204 58.25 54.2306 58.25 55.9954 57.3508C57.5477 56.5599 58.8098 55.2978 59.6008 53.7454C60.5 51.9806 60.5 49.6704 60.5 45.05V21.95C60.5 17.3296 60.5 15.0194 59.6008 13.2546C58.8098 11.7022 57.5477 10.4402 55.9954 9.6492C54.2306 8.75 51.9204 8.75 47.3 8.75L18.7 8.75C14.0796 8.75 11.7693 8.75 10.0046 9.6492C8.45223 10.4402 7.19014 11.7022 6.39918 13.2546C5.49999 15.0193 5.49999 17.3296 5.49999 21.95Z" stroke="#9C4DF4" stroke-width="3.5" stroke-linecap="round" stroke-linejoin="round"/>
</svg>
