<svg width="59" height="59" viewBox="0 0 59 59" fill="none" xmlns="http://www.w3.org/2000/svg">
<rect x="30" y="24" width="24" height="28" rx="7" fill="#C494F8"/>
<path d="M24.5833 43.5125H15.2662C5.92457 43.5125 3.07291 40.6609 3.07291 31.3192V16.5692C3.07291 7.22752 5.92457 4.37585 15.2662 4.37585H41.1525C50.4942 4.37585 53.3458 7.22752 53.3458 16.5692C53.3458 17.5771 52.51 18.4129 51.5021 18.4129C50.4942 18.4129 49.6583 17.5771 49.6583 16.5692C49.6583 9.34169 48.38 8.06335 41.1525 8.06335H15.2662C8.03874 8.06335 6.76041 9.34169 6.76041 16.5692V31.3192C6.76041 38.5467 8.03874 39.825 15.2662 39.825H24.5833C25.5912 39.825 26.4271 40.6609 26.4271 41.6688C26.4271 42.6767 25.5912 43.5125 24.5833 43.5125Z" fill="#9C4DF4"/>
<path d="M24.5833 54.6242C23.5754 54.6242 22.7396 53.7883 22.7396 52.7804V41.6442C22.7396 40.6362 23.5754 39.8004 24.5833 39.8004C25.5913 39.8004 26.4271 40.6362 26.4271 41.6442V52.7804C26.4271 53.8129 25.5913 54.6242 24.5833 54.6242Z" fill="#9C4DF4"/>
<path d="M24.5833 33.6792H4.91666C3.90874 33.6792 3.07291 32.8434 3.07291 31.8354C3.07291 30.8275 3.90874 29.9917 4.91666 29.9917H24.5833C25.5912 29.9917 26.4271 30.8275 26.4271 31.8354C26.4271 32.8434 25.5912 33.6792 24.5833 33.6792Z" fill="#9C4DF4"/>
<path d="M24.5833 54.6241H16.5692C15.5612 54.6241 14.7254 53.7883 14.7254 52.7804C14.7254 51.7725 15.5612 50.9366 16.5692 50.9366H24.5833C25.5912 50.9366 26.4271 51.7725 26.4271 52.7804C26.4271 53.7883 25.5912 54.6241 24.5833 54.6241Z" fill="#9C4DF4"/>
<path d="M46.8067 54.6241H38.0796C31.27 54.6241 28.9592 52.3133 28.9592 45.5037V31.4666C28.9592 24.657 31.27 22.3462 38.0796 22.3462H46.8067C53.6163 22.3462 55.9271 24.657 55.9271 31.4666V45.5037C55.9271 52.3379 53.6163 54.6241 46.8067 54.6241ZM38.0796 26.0337C33.2613 26.0337 32.6467 26.6483 32.6467 31.4666V45.5037C32.6467 50.322 33.2613 50.9366 38.0796 50.9366H46.8067C51.625 50.9366 52.2396 50.322 52.2396 45.5037V31.4666C52.2396 26.6483 51.625 26.0337 46.8067 26.0337H38.0796Z" fill="#9C4DF4"/>
<path d="M42.5292 46.6345C41.89 46.6345 41.2508 46.3887 40.7838 45.9216C40.5625 45.7004 40.3904 45.43 40.2675 45.135C40.1446 44.8154 40.0708 44.4958 40.0708 44.1762C40.0708 43.537 40.3413 42.8979 40.7838 42.4554C41.3492 41.89 42.2096 41.6195 43.0208 41.767C43.1683 41.8162 43.3158 41.8654 43.4633 41.9145C43.6108 41.9883 43.7583 42.062 43.8813 42.1358C44.0288 42.2341 44.1517 42.3325 44.2746 42.4554C44.7171 42.8979 44.9875 43.537 44.9875 44.1762C44.9875 44.4958 44.9137 44.8154 44.7908 45.135C44.6679 45.43 44.4958 45.7004 44.2746 45.9216C44.1517 46.0445 44.0288 46.1429 43.8813 46.2166C43.7583 46.315 43.6108 46.3887 43.4633 46.4625C43.3158 46.5116 43.1683 46.5608 43.0208 46.5854C42.8488 46.6345 42.7012 46.6345 42.5292 46.6345Z" fill="#9C4DF4"/>
</svg>
