<svg width="40" height="37" viewBox="0 0 40 37" fill="none" xmlns="http://www.w3.org/2000/svg">
<g filter="url(#filter0_d_309_7039)">
<path d="M8.89504 3.77612C8.89417 3.77612 8.8932 3.77612 8.89234 3.77612C8.58969 3.77612 8.30503 3.8941 8.09008 4.10851C7.87276 4.3253 7.75305 4.61394 7.75305 4.92123V22.0919C7.75305 22.7216 8.26732 23.2351 8.89956 23.2367C11.5649 23.2431 16.0305 23.7986 19.1111 27.0224V9.0528C19.1111 8.83936 19.0566 8.63885 18.9537 8.47292C16.4253 4.40104 11.5665 3.78237 8.89504 3.77612Z" fill="#9C4DF4"/>
<path d="M32.247 22.092V4.92123C32.247 4.61394 32.1273 4.3253 31.91 4.10851C31.6951 3.8941 31.4102 3.77612 31.1078 3.77612C31.1069 3.77612 31.1059 3.77612 31.105 3.77612C28.4337 3.78248 23.5749 4.40115 21.0463 8.47303C20.9434 8.63895 20.889 8.83947 20.889 9.05291V27.0224C23.9697 23.7986 28.4352 23.2431 31.1006 23.2367C31.7328 23.2351 32.247 22.7216 32.247 22.092Z" fill="#9C4DF4"/>
<path d="M34.8551 7.73608H34.0248V22.0921C34.0248 23.6997 32.715 25.0106 31.1048 25.0146C28.844 25.02 25.1163 25.4621 22.4762 27.9608C27.0422 26.8428 31.8556 27.5696 34.5988 28.1947C34.9413 28.2727 35.2952 28.1921 35.5697 27.9734C35.8431 27.7552 36 27.4291 36 27.079V8.88098C36.0001 8.2497 35.4864 7.73608 34.8551 7.73608Z" fill="#9C4DF4"/>
<path d="M5.97517 22.0921V7.73608H5.14489C4.51373 7.73608 4 8.2497 4 8.88098V27.0787C4 27.4289 4.15688 27.7549 4.43033 27.9731C4.70454 28.1917 5.05816 28.2726 5.40122 28.1944C8.14439 27.5691 12.9579 26.8425 17.5237 27.9605C14.8837 25.4619 11.156 25.0199 8.89515 25.0145C7.28513 25.0106 5.97517 23.6997 5.97517 22.0921Z" fill="#9C4DF4"/>
</g>
<defs>
<filter id="filter0_d_309_7039" x="0" y="0" width="40" height="40" filterUnits="userSpaceOnUse" color-interpolation-filters="sRGB">
<feFlood flood-opacity="0" result="BackgroundImageFix"/>
<feColorMatrix in="SourceAlpha" type="matrix" values="0 0 0 0 0 0 0 0 0 0 0 0 0 0 0 0 0 0 127 0" result="hardAlpha"/>
<feOffset dy="4"/>
<feGaussianBlur stdDeviation="2"/>
<feComposite in2="hardAlpha" operator="out"/>
<feColorMatrix type="matrix" values="0 0 0 0 0 0 0 0 0 0 0 0 0 0 0 0 0 0 0.25 0"/>
<feBlend mode="normal" in2="BackgroundImageFix" result="effect1_dropShadow_309_7039"/>
<feBlend mode="normal" in="SourceGraphic" in2="effect1_dropShadow_309_7039" result="shape"/>
</filter>
</defs>
</svg>
