<svg width="67" height="67" viewBox="0 0 67 67" fill="none" xmlns="http://www.w3.org/2000/svg">
<rect x="6.39282" y="8.71619" width="54.2143" height="17.6786" rx="6" fill="#FFE0DC"/>
<path d="M61 25.2162H6M39 48.5912L45.875 41.7162L39 34.8412M28 34.8412L21.125 41.7162L28 48.5912M6 21.9162L6 45.0162C6 49.6366 6 51.9468 6.8992 53.7116C7.69015 55.2639 8.95224 56.526 10.5046 57.317C12.2693 58.2162 14.5796 58.2162 19.2 58.2162H47.8C52.4204 58.2162 54.7307 58.2162 56.4954 57.317C58.0478 56.526 59.3099 55.2639 60.1008 53.7116C61 51.9468 61 49.6366 61 45.0162V21.9162C61 17.2958 61 14.9855 60.1008 13.2208C59.3099 11.6684 58.0478 10.4063 56.4954 9.61539C54.7307 8.71619 52.4204 8.71619 47.8 8.71619L19.2 8.71619C14.5796 8.71619 12.2694 8.71619 10.5046 9.61538C8.95224 10.4063 7.69015 11.6684 6.8992 13.2208C6 14.9855 6 17.2958 6 21.9162Z" stroke="#FF6652" stroke-width="3.5" stroke-linecap="round" stroke-linejoin="round"/>
</svg>
