<svg width="59" height="60" viewBox="0 0 59 60" fill="none" xmlns="http://www.w3.org/2000/svg">
<rect x="30" y="24.4662" width="24" height="28" rx="7" fill="#FFE0DC"/>
<path d="M24.5833 43.9787H15.2662C5.92454 43.9787 3.07288 41.127 3.07288 31.7854V17.0354C3.07288 7.69371 5.92454 4.84204 15.2662 4.84204H41.1525C50.4941 4.84204 53.3458 7.69371 53.3458 17.0354C53.3458 18.0433 52.51 18.8791 51.502 18.8791C50.4941 18.8791 49.6583 18.0433 49.6583 17.0354C49.6583 9.80787 48.38 8.52954 41.1525 8.52954H15.2662C8.03871 8.52954 6.76038 9.80787 6.76038 17.0354V31.7854C6.76038 39.0129 8.03871 40.2912 15.2662 40.2912H24.5833C25.5912 40.2912 26.427 41.127 26.427 42.135C26.427 43.1429 25.5912 43.9787 24.5833 43.9787Z" fill="#FF6652"/>
<path d="M24.5834 55.0903C23.5755 55.0903 22.7396 54.2545 22.7396 53.2466V42.1104C22.7396 41.1024 23.5755 40.2666 24.5834 40.2666C25.5913 40.2666 26.4271 41.1024 26.4271 42.1104V53.2466C26.4271 54.2791 25.5913 55.0903 24.5834 55.0903Z" fill="#FF6652"/>
<path d="M24.5833 34.1453H4.91663C3.90871 34.1453 3.07288 33.3095 3.07288 32.3016C3.07288 31.2937 3.90871 30.4578 4.91663 30.4578H24.5833C25.5912 30.4578 26.427 31.2937 26.427 32.3016C26.427 33.3095 25.5912 34.1453 24.5833 34.1453Z" fill="#FF6652"/>
<path d="M24.5834 55.0903H16.5692C15.5613 55.0903 14.7255 54.2545 14.7255 53.2466C14.7255 52.2387 15.5613 51.4028 16.5692 51.4028H24.5834C25.5913 51.4028 26.4271 52.2387 26.4271 53.2466C26.4271 54.2545 25.5913 55.0903 24.5834 55.0903Z" fill="#FF6652"/>
<path d="M46.8066 55.0904H38.0795C31.2699 55.0904 28.9591 52.7795 28.9591 45.9699V31.9329C28.9591 25.1233 31.2699 22.8124 38.0795 22.8124H46.8066C53.6162 22.8124 55.927 25.1233 55.927 31.9329V45.9699C55.927 52.8041 53.6162 55.0904 46.8066 55.0904ZM38.0795 26.4999C33.2612 26.4999 32.6466 27.1145 32.6466 31.9329V45.9699C32.6466 50.7883 33.2612 51.4029 38.0795 51.4029H46.8066C51.6249 51.4029 52.2395 50.7883 52.2395 45.9699V31.9329C52.2395 27.1145 51.6249 26.4999 46.8066 26.4999H38.0795Z" fill="#FF6652"/>
<path d="M42.5291 47.1008C41.89 47.1008 41.2508 46.855 40.7837 46.3879C40.5625 46.1666 40.3904 45.8962 40.2675 45.6012C40.1446 45.2816 40.0708 44.962 40.0708 44.6425C40.0708 44.0033 40.3412 43.3641 40.7837 42.9216C41.3491 42.3562 42.2096 42.0858 43.0208 42.2333C43.1683 42.2825 43.3158 42.3316 43.4633 42.3808C43.6108 42.4545 43.7583 42.5283 43.8812 42.602C44.0287 42.7004 44.1516 42.7987 44.2746 42.9216C44.7171 43.3641 44.9875 44.0033 44.9875 44.6425C44.9875 44.962 44.9137 45.2816 44.7908 45.6012C44.6679 45.8962 44.4958 46.1666 44.2746 46.3879C44.1516 46.5108 44.0287 46.6091 43.8812 46.6829C43.7583 46.7812 43.6108 46.855 43.4633 46.9287C43.3158 46.9779 43.1683 47.027 43.0208 47.0516C42.8487 47.1008 42.7012 47.1008 42.5291 47.1008Z" fill="#FF6652"/>
</svg>
