<svg width="74" height="74" viewBox="0 0 74 74" fill="none" xmlns="http://www.w3.org/2000/svg">
<circle cx="37" cy="38.9662" r="12.5" fill="#FFE0DC"/>
<path d="M21.2655 19.2485C20.7179 20.1151 19.9874 20.8514 19.1251 21.4057C18.2629 21.9601 17.2898 22.3191 16.2741 22.4575C15.1182 22.6217 13.9715 22.7981 12.8248 22.9897C9.62196 23.522 7.34375 26.3417 7.34375 29.5871V55.2162C7.34375 57.0313 8.06479 58.772 9.34824 60.0555C10.6317 61.3389 12.3724 62.06 14.1875 62.06H59.8125C61.6276 62.06 63.3683 61.3389 64.6518 60.0555C65.9352 58.772 66.6563 57.0313 66.6563 55.2162V29.5871C66.6563 26.3417 64.375 23.522 61.1752 22.9897C60.0276 22.7985 58.8778 22.6211 57.7259 22.4575C56.7108 22.3186 55.7382 21.9595 54.8765 21.4051C54.0148 20.8508 53.2848 20.1147 52.7376 19.2485L50.2373 15.2457C49.6758 14.3335 48.9027 13.57 47.9836 13.0199C47.0644 12.4698 46.0263 12.1492 44.957 12.0854C39.6562 11.8006 34.3438 11.8006 29.043 12.0854C27.9737 12.1492 26.9356 12.4698 26.0164 13.0199C25.0973 13.57 24.3242 14.3335 23.7627 15.2457L21.2655 19.2485V19.2485Z" stroke="#FF6652" stroke-width="3.5" stroke-linecap="round" stroke-linejoin="round"/>
<path d="M50.6875 39.2474C50.6875 42.8776 49.2454 46.3591 46.6785 48.926C44.1116 51.4929 40.6301 52.9349 37 52.9349C33.3698 52.9349 29.8884 51.4929 27.3215 48.926C24.7546 46.3591 23.3125 42.8776 23.3125 39.2474C23.3125 35.6173 24.7546 32.1358 27.3215 29.5689C29.8884 27.002 33.3698 25.5599 37 25.5599C40.6301 25.5599 44.1116 27.002 46.6785 29.5689C49.2454 32.1358 50.6875 35.6173 50.6875 39.2474V39.2474ZM57.5312 32.4037H57.5556V32.428H57.5312V32.4037Z" stroke="#FF6652" stroke-width="3.5" stroke-linecap="round" stroke-linejoin="round"/>
</svg>
