<svg width="54" height="53" viewBox="0 0 54 53" fill="none" xmlns="http://www.w3.org/2000/svg">
<rect x="2.4165" y="33.4662" width="49" height="17" rx="4" fill="#FFE0DC"/>
<path d="M12.7537 22.4082C11.5763 18.012 12.4645 13.1778 15.4184 9.44259M41.2471 22.408C42.4244 18.0119 41.5362 13.1777 38.5824 9.44247M3.25743 24.9692C1.19746 17.2875 2.92213 8.80223 8.43144 2.46619M50.7348 24.9693C52.7948 17.2876 51.0701 8.80234 45.5608 2.46629M27.0004 33.3284V18.5784M11.0212 41.9326H20.8545M10.2837 50.5367H43.717C46.4706 50.5367 47.8474 50.5367 48.8992 50.0008C49.8243 49.5295 50.5765 48.7773 51.0478 47.8522C51.5837 46.8005 51.5837 45.4237 51.5837 42.6701V41.1951C51.5837 38.4415 51.5837 37.0647 51.0478 36.0129C50.5765 35.0878 49.8243 34.3357 48.8992 33.8643C47.8474 33.3284 46.4706 33.3284 43.717 33.3284H10.2837C7.53012 33.3284 6.15333 33.3284 5.10159 33.8643C4.17646 34.3357 3.42431 35.0878 2.95293 36.0129C2.41705 37.0647 2.41705 38.4415 2.41705 41.1951V42.6701C2.41705 45.4237 2.41705 46.8005 2.95293 47.8522C3.42431 48.7773 4.17646 49.5295 5.10159 50.0008C6.15333 50.5367 7.53012 50.5367 10.2837 50.5367Z" stroke="#FF6652" stroke-width="3.5" stroke-linecap="round" stroke-linejoin="round"/>
</svg>
