<svg width="60" height="61" viewBox="0 0 60 61" fill="none" xmlns="http://www.w3.org/2000/svg">
<g clip-path="url(#clip0_30_1618)">
<path d="M21 29.4662C13.4 36.2662 15.5 42.6328 17.5 44.9662C26.3 47.7661 31.1667 40.7995 32.5 36.9662L42.5 28.4662C47.8333 21.6328 57.7 7.56617 54.5 5.96617C51.3 4.36617 42.1667 10.6328 38 13.9662C35.5 16.2995 28.6 22.6662 21 29.4662Z" fill="#FFE0DC"/>
<path d="M27.425 5.46619H22.425C9.92505 5.46619 4.92505 10.4662 4.92505 22.9662V37.9662C4.92505 50.4662 9.92505 55.4662 22.425 55.4662H37.425C49.925 55.4662 54.925 50.4662 54.925 37.9662V32.9662" stroke="#FF6652" stroke-width="3.5" stroke-linecap="round" stroke-linejoin="round"/>
<path d="M54.7001 9.36619C51.6251 17.0412 43.9001 27.4912 37.4501 32.6662L33.5001 35.8162C33.0001 36.1912 32.5001 36.4912 31.9251 36.7162C31.9251 36.3412 31.9001 35.9662 31.8501 35.5662C31.6251 33.8912 30.8751 32.3162 29.5251 30.9912C28.1501 29.6162 26.5001 28.8412 24.8001 28.6162C24.4001 28.5912 24.0001 28.5662 23.6001 28.5912C23.8251 27.9662 24.1501 27.3912 24.5751 26.9162L27.7251 22.9662C32.9001 16.5162 43.3751 8.74119 51.0251 5.66619C52.2001 5.21619 53.3501 5.56619 54.0751 6.29119C54.8251 7.04119 55.1751 8.19119 54.7001 9.36619Z" stroke="#FF6652" stroke-width="3.5" stroke-linecap="round" stroke-linejoin="round"/>
<path d="M31.95 36.6912C31.95 38.8912 31.1 40.9912 29.525 42.5912C28.3 43.8162 26.65 44.6662 24.675 44.9162L19.75 45.4412C17.075 45.7412 14.775 43.4662 15.075 40.7412L15.6 35.8162C16.075 31.4412 19.725 28.6412 23.625 28.5662C24.025 28.5412 24.425 28.5662 24.825 28.5912C26.525 28.8162 28.175 29.5912 29.55 30.9662C30.9 32.3162 31.65 33.8662 31.875 35.5412C31.925 35.9412 31.95 36.3412 31.95 36.6912Z" stroke="#FF6652" stroke-width="3.5" stroke-linecap="round" stroke-linejoin="round"/>
<path d="M39.55 30.4162C39.55 25.1912 35.325 20.9412 30.075 20.9412" stroke="#FF6652" stroke-width="3.5" stroke-linecap="round" stroke-linejoin="round"/>
</g>
<defs>
<clipPath id="clip0_30_1618">
<rect width="60" height="60" fill="white" transform="translate(0 0.466187)"/>
</clipPath>
</defs>
</svg>
