<svg width="63" height="64" viewBox="0 0 63 64" fill="none" xmlns="http://www.w3.org/2000/svg">
<path d="M16.5 19.4662C12.5 19.4662 7.16667 22.4662 5 23.9662C7 13.5661 9.83333 8.63282 11 7.46616C21.3333 7.29949 43.1 7.06616 47.5 7.46616C53 7.96616 54.5 9.96616 55 10.9662C55.4 11.7662 56.5 18.2995 57 21.4662C56.6667 21.9662 55.8 22.6662 55 21.4662C54 19.9662 21.5 19.4662 16.5 19.4662Z" fill="#FFE0DC"/>
<path d="M57.75 28.0287L56.5046 18.0659C56.0162 14.1582 55.772 12.2044 54.8524 10.732C54.0422 9.43481 52.8718 8.40159 51.4841 7.75855C49.909 7.02869 47.94 7.02869 44.0019 7.02869H18.9981C15.06 7.02869 13.091 7.02869 11.5159 7.75855C10.1282 8.40159 8.95782 9.43481 8.14762 10.732C7.22804 12.2044 6.98381 14.1582 6.49535 18.0659L5.25 28.0287M14.4375 38.5287H48.5625M14.4375 38.5287C9.36338 38.5287 5.25 34.4153 5.25 29.3412C5.25 24.2671 9.36338 20.1537 14.4375 20.1537H48.5625C53.6366 20.1537 57.75 24.2671 57.75 29.3412C57.75 34.4153 53.6366 38.5287 48.5625 38.5287M14.4375 38.5287C9.36338 38.5287 5.25 42.6421 5.25 47.7162C5.25 52.7903 9.36338 56.9037 14.4375 56.9037H48.5625C53.6366 56.9037 57.75 52.7903 57.75 47.7162C57.75 42.6421 53.6366 38.5287 48.5625 38.5287M15.75 29.3412H15.7763M15.75 47.7162H15.7763M31.5 29.3412H47.25M31.5 47.7162H47.25" stroke="#FF6652" stroke-width="3.5" stroke-linecap="round" stroke-linejoin="round"/>
</svg>
