<svg width="63" height="63" viewBox="0 0 63 63" fill="none" xmlns="http://www.w3.org/2000/svg">
<g clip-path="url(#clip0_28_1774)">
<path d="M40.7027 18.9662L40.1622 13.4662H46.6486L52.5946 11.4662L53.6757 16.9662L58 21.4662L52.5946 24.4662L48.8108 29.4662L43.9459 25.9662L38 23.9662L40.7027 18.9662Z" fill="#FFE0DC"/>
<path d="M45.0462 42.0067L25.2388 22.1993L23.8056 20.7661C23.2365 20.197 22.3129 20.197 21.7438 20.7661C21.1747 21.3352 21.1747 22.2588 21.7438 22.8279L22.6522 23.7363C21.1304 33.0086 16.9998 39.6114 15.2307 42.0977C14.7608 41.9927 14.2488 42.1222 13.8826 42.4883L11.3054 45.0656C8.30835 48.0638 8.30835 52.9407 11.3054 55.9389C12.8039 57.4375 14.7736 58.1873 16.7421 58.1873C18.7106 58.1873 20.6791 57.4375 22.1788 55.9389L22.3047 55.813L28.4912 61.9995C28.7758 62.2841 29.149 62.4263 29.5221 62.4263C29.8953 62.4263 30.2685 62.2841 30.553 61.9995C31.1221 61.4304 31.1221 60.5068 30.553 59.9377L24.3665 53.7512L24.756 53.3617C25.1222 52.9955 25.2516 52.4836 25.1467 52.0136C27.6329 50.2445 34.2358 46.114 43.508 44.5921L44.4165 45.5006C44.701 45.7851 45.0742 45.9274 45.4473 45.9274C45.8205 45.9274 46.1937 45.7851 46.4782 45.5006C47.0473 44.9315 47.0473 44.0079 46.4782 43.4388L45.045 42.0056L45.0462 42.0067ZM13.3684 53.8772C11.5072 52.0159 11.5072 48.9886 13.3684 47.1274L14.9147 45.581L18.2896 48.9559L21.6645 52.3308L20.1181 53.8772C18.2569 55.7384 15.2296 55.7384 13.3684 53.8772ZM23.2412 49.7839L17.4605 44.0032C19.212 41.6067 23.2621 35.3222 25.1537 26.2366L41.0077 42.0907C31.9233 43.9822 25.6376 48.0323 23.2412 49.7839Z" fill="#FF6652"/>
<path d="M51.4392 29.7329L52.8678 26.3591C52.9202 26.2355 53.017 26.1387 53.1406 26.0863L56.5144 24.6577C57.6117 24.1936 58.3779 23.2128 58.5645 22.0362C58.7511 20.8595 58.3243 19.6898 57.4251 18.9097L54.6578 16.5085C54.5564 16.421 54.4946 16.2986 54.4829 16.1645L54.1669 12.5144C54.0642 11.3272 53.3692 10.2952 52.3068 9.75406C51.2444 9.21296 50.0013 9.25727 48.9809 9.87184L45.8428 11.7622C45.7273 11.831 45.592 11.8532 45.4614 11.8228L41.8918 10.9949C40.7314 10.7255 39.5349 11.0683 38.6918 11.9103C37.8487 12.7534 37.507 13.9488 37.7764 15.1103L38.6043 18.6799C38.6347 18.8105 38.6137 18.9458 38.5437 19.0613L36.6533 22.1994C36.0388 23.2198 35.9944 24.4641 36.5356 25.5253C37.0767 26.5865 38.1087 27.2827 39.2959 27.3854L42.946 27.7014C43.0801 27.7131 43.2014 27.7749 43.29 27.8763L45.6911 30.6436C46.3512 31.404 47.2876 31.8261 48.273 31.8261C48.4538 31.8261 48.6357 31.8121 48.8176 31.783C49.9943 31.5964 50.9751 30.8302 51.4392 29.7329ZM48.7547 28.5959C48.6579 28.8244 48.4666 28.8862 48.3617 28.9026C48.2567 28.9189 48.0561 28.9189 47.8929 28.7323L45.4917 25.965C44.904 25.2886 44.09 24.8723 43.1967 24.7953L39.5466 24.4793C39.2994 24.4583 39.1816 24.295 39.1326 24.2006C39.0836 24.1061 39.0218 23.9148 39.1501 23.7026L41.0405 20.5644C41.5023 19.7971 41.6457 18.8933 41.444 18.021L40.616 14.4514C40.56 14.21 40.6778 14.0467 40.7536 13.9721C40.8154 13.9103 40.9355 13.8205 41.1093 13.8205C41.1478 13.8205 41.1886 13.8252 41.2329 13.8357L44.8025 14.6636C45.6748 14.8654 46.5786 14.7231 47.3471 14.2601L50.4853 12.3698C50.6975 12.2415 50.8888 12.3033 50.9832 12.3523C51.0777 12.4013 51.2409 12.519 51.2619 12.7663L51.578 16.4164C51.6549 17.3097 52.0701 18.1237 52.7476 18.7114L55.515 21.1125C55.7027 21.2746 55.7027 21.4764 55.6852 21.5813C55.6677 21.6863 55.6071 21.8776 55.3785 21.9743L52.0048 23.4029C51.1791 23.7528 50.5331 24.3988 50.1832 25.2245L48.7547 28.5982V28.5959Z" fill="#FF6652"/>
<path d="M26.5518 18.1481C26.7337 18.2227 26.9215 18.2577 27.1057 18.2577C27.6795 18.2577 28.2229 17.9172 28.4538 17.3551L32.1249 8.4397C32.4316 7.69568 32.0759 6.84321 31.3319 6.53651C30.5879 6.22981 29.7354 6.58549 29.4287 7.32951L25.7576 16.2449C25.4509 16.9889 25.8066 17.8414 26.5506 18.1481H26.5518Z" fill="#FF6652"/>
<path d="M60.7078 35.9123C60.4011 35.1683 59.5498 34.8126 58.8046 35.1193L49.8893 38.7904C49.1452 39.0971 48.7896 39.9484 49.0963 40.6936C49.3283 41.2569 49.8718 41.5962 50.4444 41.5962C50.6286 41.5962 50.8175 41.5613 50.9983 41.4866L59.9136 37.8155C60.6577 37.5088 61.0133 36.6575 60.7066 35.9123H60.7078Z" fill="#FF6652"/>
</g>
<defs>
<clipPath id="clip0_28_1774">
<rect width="62" height="62" fill="white" transform="translate(0.5 0.466187)"/>
</clipPath>
</defs>
</svg>
