<svg width="20" height="20" viewBox="0 0 20 20" fill="none" xmlns="http://www.w3.org/2000/svg">
<path d="M8.55835 17.5C8.55835 18.075 8.09168 18.5417 7.51668 18.5417C6.94252 18.5417 6.47085 18.075 6.47085 17.5C6.47085 16.925 6.93334 16.4583 7.50834 16.4583H7.51668C8.09168 16.4583 8.55835 16.925 8.55835 17.5ZM14.1834 16.4583H14.175C13.6 16.4583 13.1375 16.925 13.1375 17.5C13.1375 18.075 13.6084 18.5417 14.1834 18.5417C14.7584 18.5417 15.225 18.075 15.225 17.5C15.225 16.925 14.7584 16.4583 14.1834 16.4583ZM18.0875 7.07669L17.2425 12.215C17.0234 13.42 16.4783 14.7917 14.1667 14.7917H7.27834C6.14584 14.7917 5.16997 13.9459 5.00997 12.8242L3.75163 4.02002C3.67829 3.51002 3.23585 3.12585 2.72085 3.12585H2.5C2.155 3.12585 1.875 2.84585 1.875 2.50085C1.875 2.15585 2.155 1.87585 2.5 1.87585H2.72166C3.85416 1.87585 4.83003 2.72168 4.99003 3.84335L5.06663 4.37585H15.8333C16.515 4.37585 17.1567 4.67585 17.5934 5.19918C18.0292 5.72168 18.21 6.40669 18.0875 7.07669ZM16.0108 12.0025L16.1 11.4583H10.8333C10.4883 11.4583 10.2083 11.1783 10.2083 10.8333C10.2083 10.4883 10.4883 10.2083 10.8333 10.2083H16.3058L16.8559 6.86334C16.9134 6.54834 16.8317 6.23669 16.6325 5.99919C16.4333 5.76169 16.1425 5.62502 15.8325 5.62502H5.24414L6.24746 12.6475C6.32079 13.1575 6.76334 13.5417 7.27834 13.5417H14.1667C15.4975 13.5417 15.8217 13.045 16.0108 12.0025Z" fill="#474B4F"/>
</svg>
